<svg width="110" height="111" viewBox="0 0 110 111" fill="none" xmlns="http://www.w3.org/2000/svg">
<path d="M77.9135 32.8054H32.0352V78.6681H77.9135V32.8054Z" fill="white"/>
<path d="M58.5273 49.315L60.6336 52.3169L63.9285 49.9196V67.3265H67.5362V44.5203H64.5332L58.5273 49.315Z" fill="#1E88E5"/>
<path d="M52.7973 55.2142C53.4571 54.6243 53.9841 53.9012 54.3436 53.0927C54.7031 52.2841 54.8868 51.4085 54.8827 50.5237C54.8067 48.7043 54.0144 46.9887 52.6785 45.7508C51.3425 44.513 49.5712 43.8532 47.7507 43.9153C46.1893 43.871 44.6579 44.3496 43.3998 45.275C42.1416 46.2003 41.2288 47.5194 40.8064 49.0227L44.2681 49.8983C44.5058 49.174 44.976 48.5485 45.6057 48.1188C46.2354 47.6891 46.9894 47.4792 47.7507 47.5218C48.6207 47.4523 49.483 47.7285 50.1506 48.2905C50.8181 48.8524 51.2371 49.6549 51.3167 50.5237C51.2319 51.3904 50.8115 52.1896 50.1452 52.7505C49.4788 53.3114 48.6195 53.5896 47.7507 53.5256H45.6653V57.1112H47.7507C48.7526 57.0341 49.7457 57.3467 50.5227 57.9836C51.2998 58.6206 51.8008 59.5328 51.9215 60.5301C51.8364 61.5151 51.366 62.4267 50.6123 63.0669C49.8587 63.707 48.8828 64.024 47.8967 63.949C46.9942 63.9997 46.1023 63.7338 45.375 63.1971C44.6478 62.6604 44.1309 61.8867 43.9136 61.0096L40.4102 61.5724C40.7578 63.293 41.7011 64.8361 43.0741 65.9303C44.4472 67.0246 46.1621 67.6 47.9175 67.5554C49.8557 67.6287 51.7438 66.93 53.167 65.6128C54.5903 64.2956 55.4323 62.4675 55.5083 60.5301C55.4986 59.4948 55.2488 58.4758 54.7783 57.5534C54.3079 56.6309 53.6298 55.8302 52.7973 55.2142Z" fill="#1E88E5"/>
<path d="M75.8282 93.2737H34.1205L32.0352 84.935L34.1205 76.5963H75.8282L77.9135 84.935L75.8282 93.2737Z" fill="#FFCD1A"/>
<path d="M84.1814 78.6681L92.5229 76.5835V34.8901L84.1814 32.8054L75.8398 34.8901V76.5835L84.1814 78.6681Z" fill="#34B939"/>
<path d="M75.8633 34.9L77.9487 26.5613L75.8633 18.2227H23.7288C22.0696 18.2227 20.4783 18.8816 19.305 20.0544C18.1318 21.2273 17.4727 22.818 17.4727 24.4767V76.5934L25.8142 78.6781L34.1557 76.5934V34.9H75.8633Z" fill="#1190FF"/>
<path d="M75.8398 76.5963V93.2737L92.5229 76.5963H75.8398Z" fill="#F0403C"/>
<path d="M86.2667 18.2227H75.8398V34.9H92.5229V24.4767C92.5229 22.818 91.8638 21.2273 90.6905 20.0544C89.5173 18.8816 87.926 18.2227 86.2667 18.2227Z" fill="#0062D2"/>
<path d="M23.7288 93.2737H34.1557V76.5963H17.4727V87.0197C17.4727 88.6783 18.1318 90.2691 19.305 91.4419C20.4783 92.6148 22.0696 93.2737 23.7288 93.2737Z" fill="#0062D2"/>
</svg>
