<svg width="110" height="111" viewBox="0 0 110 111" fill="none" xmlns="http://www.w3.org/2000/svg">
<path d="M83.4682 89.4746L42.5039 20.472C43.5114 20.0036 44.6205 19.75 45.7649 19.75H64.2336C67.0273 19.75 69.6107 21.2613 71.0184 23.7191L93.9282 63.7201C95.3549 66.211 95.3549 69.2912 93.9282 71.7822L84.7643 87.7826C84.4039 88.4118 83.9665 88.9789 83.4682 89.4746Z" fill="#FCB900"/>
<path d="M26.5435 89.4746L67.5078 20.472C66.5004 20.0036 65.3912 19.75 64.2469 19.75H45.7782C42.9845 19.75 40.401 21.2613 38.9933 23.7191L16.0835 63.7201C14.6568 66.211 14.6568 69.2912 16.0835 71.7822L25.2474 87.7826C25.6078 88.4118 26.0452 88.9789 26.5435 89.4746Z" fill="#02AA49"/>
<path d="M42.5039 20.4763L55.0026 41.5297L67.5012 20.4763C66.4913 20.0052 65.3789 19.75 64.231 19.75H45.7741C44.6262 19.75 43.5138 20.0052 42.5039 20.4763Z" fill="#01832C"/>
<path d="M94.998 67.7483H15C15 69.1411 15.3567 70.5339 16.07 71.7794L25.2339 87.7797C26.6416 90.2375 29.2251 91.7489 32.0188 91.7489H77.9793C80.773 91.7489 83.3564 90.2375 84.7641 87.7797L93.928 71.7794C94.6414 70.5339 94.998 69.1411 94.998 67.7483Z" fill="#2785FC"/>
<path d="M39.4381 67.7483L26.5417 89.4717C26.0434 88.9761 25.606 88.4089 25.2457 87.7797L16.0817 71.7794C15.3684 70.5339 15.0117 69.1411 15.0117 67.7483H39.4381Z" fill="#0364D7"/>
<path d="M70.5781 67.7483L83.4746 89.4717C83.9728 88.9761 84.4102 88.4089 84.7706 87.7797L93.9345 71.7794C94.6479 70.5339 95.0045 69.1411 95.0045 67.7483H70.5781Z" fill="#E54635"/>
</svg>
