<svg width="110" height="111" viewBox="0 0 110 111" fill="none" xmlns="http://www.w3.org/2000/svg">
<path d="M67.7854 55.0398H32.7512C26.2569 55.0398 20.9922 49.7752 20.9922 43.2811V19.257C20.9922 17.8728 22.115 16.75 23.4992 16.75H58.5335C65.0277 16.75 70.2925 22.0146 70.2925 28.5087V52.5329C70.2925 53.917 69.1696 55.0398 67.7854 55.0398Z" fill="#2D8CFF"/>
<path d="M71.8789 43.6792L87.3238 54.6592C88.2519 54.6592 89.0067 53.9071 89.0067 52.9763V19.2737C89.0067 18.3456 88.2545 17.5908 87.3238 17.5908L71.8789 28.5708V43.6792Z" fill="#2D8CFF"/>
<path d="M38.8084 73.8096H38.7974C33.0322 73.8096 28.3672 78.4989 28.3672 84.2696C28.3672 90.0514 33.0322 94.7407 38.7974 94.7407C44.5626 94.7407 49.2385 90.0624 49.2385 84.2807C49.2385 78.4989 44.5736 73.8096 38.8084 73.8096ZM43.2203 88.7163C40.7668 91.1658 36.8059 91.1547 34.3634 88.7052C31.9319 86.2557 31.9319 82.2835 34.3634 79.834C36.8059 77.3735 40.7668 77.3735 43.2203 79.823L43.2313 79.834C45.6848 82.2835 45.6738 86.2668 43.2203 88.7163Z" fill="#2D8CFF"/>
<path d="M26.2819 90.6019L25.2366 90.5468H15.8407L28.3723 77.9792L28.3173 76.931C28.2733 75.2428 26.92 73.8857 25.2366 73.8415L24.1914 73.7864H8.53516L8.59017 74.8346C8.66718 76.5007 9.99846 77.8468 11.6708 77.9241L12.716 77.9792H22.112L9.58037 90.5468L9.63539 91.595C9.6904 93.2721 11.0437 94.6293 12.716 94.6844L13.7612 94.7396H29.4175L29.3625 93.6914C29.2195 91.9591 27.9982 90.7012 26.2819 90.6019Z" fill="#2D8CFF"/>
<path d="M93.1057 73.8116C90.7072 73.8116 88.4297 74.8488 86.8454 76.6473C84.0728 73.4916 79.3859 72.8847 75.9091 75.246C75.106 74.3302 73.2796 73.8116 72.2344 73.8116V94.7538L73.2796 94.6986C75.018 94.5883 76.2942 93.3525 76.3602 91.6091L76.4152 90.5609V83.2345L76.4703 82.1863C76.4703 81.458 76.6573 80.7408 76.9874 80.0898C78.1316 78.0927 80.6841 77.4086 82.6865 78.5672C83.3137 78.9313 83.8418 79.4609 84.2049 80.0898H84.1939C84.5349 80.7408 84.711 81.458 84.711 82.1863L84.766 83.2345V90.5609L84.821 91.6091C84.887 93.2863 86.2183 94.6324 87.8906 94.6986L88.9358 94.7538V83.2345L88.9909 82.1863C88.9909 81.447 89.1669 80.7298 89.508 80.0788C90.6632 78.0817 93.2267 77.3976 95.2181 78.5672C95.8453 78.9313 96.3734 79.4609 96.7365 80.0898C97.0665 80.7408 97.2426 81.458 97.2426 82.1863L97.2976 83.2345V90.5609L97.3526 91.6091C97.4076 93.2863 98.7499 94.6324 100.422 94.6986L101.467 94.7538V82.1863C101.456 77.5631 97.7157 73.8116 93.1057 73.8116Z" fill="#2D8CFF"/>
<path d="M68.1098 76.877C66.1514 74.913 63.4998 73.8096 60.7273 73.8096C57.9547 73.8096 55.3031 74.913 53.3447 76.877C49.2739 80.9705 49.2739 87.6018 53.3557 91.6844C57.4376 95.7669 64.05 95.7669 68.1208 91.6733C72.2026 87.5908 72.1916 80.9595 68.1098 76.877ZM65.1502 88.7163C62.6967 91.1658 58.7359 91.1547 56.2933 88.7052C53.8618 86.2557 53.8618 82.2835 56.2933 79.834C58.7359 77.3735 62.6967 77.3735 65.1502 79.823L65.1612 79.834C67.6147 82.2835 67.6037 86.2668 65.1502 88.7163Z" fill="#2D8CFF"/>
</svg>
